<mxfile host="app.diagrams.net" modified="2023-08-01T14:54:00.602Z" agent="Mozilla/5.0 (Windows NT 10.0; Win64; x64) AppleWebKit/537.36 (KHTML, like Gecko) Chrome/115.0.0.0 Safari/537.36" etag="VVCrjwvOoRs6FvKiqi6N" version="21.6.6" type="device">
  <diagram name="Page-1" id="gow91o3cRB6m4z3baDgw">
    <mxGraphModel dx="1050" dy="574" grid="1" gridSize="10" guides="1" tooltips="1" connect="1" arrows="1" fold="1" page="1" pageScale="1" pageWidth="850" pageHeight="1100" math="0" shadow="0">
      <root>
        <mxCell id="0" />
        <mxCell id="1" parent="0" />
        <mxCell id="KzRDVPyTv7mD3XFSix9S-1" value="" style="rounded=0;whiteSpace=wrap;html=1;fontSize=17;align=left;" vertex="1" parent="1">
          <mxGeometry x="200" y="70" width="490" height="660" as="geometry" />
        </mxCell>
        <mxCell id="KzRDVPyTv7mD3XFSix9S-2" value="" style="rounded=1;whiteSpace=wrap;html=1;fontSize=17;align=left;" vertex="1" parent="1">
          <mxGeometry x="360" y="120" width="280" height="30" as="geometry" />
        </mxCell>
        <mxCell id="KzRDVPyTv7mD3XFSix9S-4" value="Name" style="text;html=1;strokeColor=none;fillColor=none;align=left;verticalAlign=middle;whiteSpace=wrap;rounded=0;fontSize=17;" vertex="1" parent="1">
          <mxGeometry x="220" y="120" width="60" height="30" as="geometry" />
        </mxCell>
        <mxCell id="KzRDVPyTv7mD3XFSix9S-5" value="Address" style="text;html=1;strokeColor=none;fillColor=none;align=left;verticalAlign=middle;whiteSpace=wrap;rounded=0;fontSize=17;" vertex="1" parent="1">
          <mxGeometry x="220" y="180" width="60" height="30" as="geometry" />
        </mxCell>
        <mxCell id="KzRDVPyTv7mD3XFSix9S-6" value="Contact Number" style="text;html=1;strokeColor=none;fillColor=none;align=left;verticalAlign=middle;whiteSpace=wrap;rounded=0;fontSize=17;" vertex="1" parent="1">
          <mxGeometry x="220" y="240" width="160" height="30" as="geometry" />
        </mxCell>
        <mxCell id="KzRDVPyTv7mD3XFSix9S-7" value="Event" style="text;html=1;strokeColor=none;fillColor=none;align=left;verticalAlign=middle;whiteSpace=wrap;rounded=0;fontSize=17;" vertex="1" parent="1">
          <mxGeometry x="220" y="295" width="80" height="30" as="geometry" />
        </mxCell>
        <mxCell id="KzRDVPyTv7mD3XFSix9S-8" value="Date" style="text;html=1;strokeColor=none;fillColor=none;align=left;verticalAlign=middle;whiteSpace=wrap;rounded=0;fontSize=17;" vertex="1" parent="1">
          <mxGeometry x="220" y="400" width="60" height="30" as="geometry" />
        </mxCell>
        <mxCell id="KzRDVPyTv7mD3XFSix9S-9" value="More" style="text;html=1;strokeColor=none;fillColor=none;align=left;verticalAlign=middle;whiteSpace=wrap;rounded=0;fontSize=17;" vertex="1" parent="1">
          <mxGeometry x="220" y="470" width="60" height="30" as="geometry" />
        </mxCell>
        <mxCell id="KzRDVPyTv7mD3XFSix9S-11" value="" style="rounded=1;whiteSpace=wrap;html=1;fontSize=17;align=left;" vertex="1" parent="1">
          <mxGeometry x="360" y="180" width="280" height="30" as="geometry" />
        </mxCell>
        <mxCell id="KzRDVPyTv7mD3XFSix9S-13" value="" style="rounded=1;whiteSpace=wrap;html=1;fontSize=17;align=left;" vertex="1" parent="1">
          <mxGeometry x="360" y="240" width="280" height="30" as="geometry" />
        </mxCell>
        <mxCell id="KzRDVPyTv7mD3XFSix9S-14" value="Wedding" style="text;html=1;strokeColor=none;fillColor=none;align=left;verticalAlign=middle;whiteSpace=wrap;rounded=0;" vertex="1" parent="1">
          <mxGeometry x="390" y="295" width="60" height="30" as="geometry" />
        </mxCell>
        <mxCell id="KzRDVPyTv7mD3XFSix9S-15" value="Birth Day party" style="text;html=1;strokeColor=none;fillColor=none;align=left;verticalAlign=middle;whiteSpace=wrap;rounded=0;" vertex="1" parent="1">
          <mxGeometry x="390" y="325" width="60" height="30" as="geometry" />
        </mxCell>
        <mxCell id="KzRDVPyTv7mD3XFSix9S-16" value="other" style="text;html=1;strokeColor=none;fillColor=none;align=left;verticalAlign=middle;whiteSpace=wrap;rounded=0;" vertex="1" parent="1">
          <mxGeometry x="390" y="360" width="60" height="30" as="geometry" />
        </mxCell>
        <mxCell id="KzRDVPyTv7mD3XFSix9S-17" value="" style="ellipse;whiteSpace=wrap;html=1;aspect=fixed;" vertex="1" parent="1">
          <mxGeometry x="370" y="305" width="10" height="10" as="geometry" />
        </mxCell>
        <mxCell id="KzRDVPyTv7mD3XFSix9S-18" value="" style="ellipse;whiteSpace=wrap;html=1;aspect=fixed;" vertex="1" parent="1">
          <mxGeometry x="370" y="325" width="10" height="10" as="geometry" />
        </mxCell>
        <mxCell id="KzRDVPyTv7mD3XFSix9S-19" value="" style="ellipse;whiteSpace=wrap;html=1;aspect=fixed;" vertex="1" parent="1">
          <mxGeometry x="370" y="370" width="10" height="10" as="geometry" />
        </mxCell>
        <mxCell id="KzRDVPyTv7mD3XFSix9S-21" value="" style="shape=internalStorage;whiteSpace=wrap;html=1;backgroundOutline=1;" vertex="1" parent="1">
          <mxGeometry x="360" y="410" width="100" height="40" as="geometry" />
        </mxCell>
        <mxCell id="KzRDVPyTv7mD3XFSix9S-22" value="" style="rounded=0;whiteSpace=wrap;html=1;" vertex="1" parent="1">
          <mxGeometry x="360" y="480" width="200" height="100" as="geometry" />
        </mxCell>
        <mxCell id="KzRDVPyTv7mD3XFSix9S-23" value="Submit" style="rounded=1;whiteSpace=wrap;html=1;" vertex="1" parent="1">
          <mxGeometry x="580" y="680" width="80" height="30" as="geometry" />
        </mxCell>
        <mxCell id="KzRDVPyTv7mD3XFSix9S-24" value="Reset" style="rounded=1;whiteSpace=wrap;html=1;" vertex="1" parent="1">
          <mxGeometry x="500" y="680" width="60" height="30" as="geometry" />
        </mxCell>
      </root>
    </mxGraphModel>
  </diagram>
</mxfile>
